<svg width="16" height="18" viewBox="0 0 16 18" fill="none" xmlns="http://www.w3.org/2000/svg">
<path d="M9.19719 15.916L8.40442 16.7832C8.06874 17.1504 7.52595 17.1504 7.19384 16.7832L0.251758 9.19336C-0.0839192 8.82617 -0.0839192 8.23242 0.251758 7.86914L7.19384 0.275391C7.52952 -0.0917969 8.07231 -0.0917969 8.40442 0.275391L9.19719 1.14258C9.53644 1.51367 9.52929 2.11914 9.1829 2.48242L4.87981 6.9668H15.143C15.6179 6.9668 16 7.38477 16 7.9043V9.1543C16 9.67383 15.6179 10.0918 15.143 10.0918H4.87981L9.1829 14.5762C9.53286 14.9395 9.54001 15.5449 9.19719 15.916Z" fill="black"/>
</svg>
