<svg width="22" height="22" viewBox="0 0 22 22" fill="none" xmlns="http://www.w3.org/2000/svg">
<path d="M20.2104 14.89C19.5742 16.3945 18.5792 17.7202 17.3123 18.7513C16.0454 19.7824 14.5452 20.4874 12.9428 20.8048C11.3405 21.1221 9.68483 21.0421 8.12055 20.5718C6.55627 20.1014 5.13103 19.2551 3.96942 18.1066C2.80782 16.9582 1.94522 15.5427 1.45704 13.9839C0.968859 12.4251 0.869965 10.7705 1.169 9.16462C1.46804 7.55877 2.1559 6.05061 3.17245 4.77202C4.189 3.49342 5.50329 2.4833 7.0004 1.82999" stroke="#27476E" stroke-width="2" stroke-linecap="round" stroke-linejoin="round"/>
<path d="M21.0005 11C21.0005 9.68678 20.7418 8.38642 20.2393 7.17317C19.7367 5.95991 19.0001 4.85752 18.0716 3.92893C17.143 3.00035 16.0406 2.26375 14.8273 1.7612C13.6141 1.25866 12.3137 1 11.0005 1V11H21.0005Z" stroke="#27476E" stroke-width="2" stroke-linecap="round" stroke-linejoin="round"/>
</svg>
