<svg width="64" height="64" viewBox="0 0 64 64" fill="none" xmlns="http://www.w3.org/2000/svg">
<path d="M56 0C58.1217 0 60.1566 0.842855 61.6569 2.34315C63.1571 3.84344 64 5.87827 64 8V56C64 58.1217 63.1571 60.1566 61.6569 61.6569C60.1566 63.1571 58.1217 64 56 64H8C5.87827 64 3.84344 63.1571 2.34315 61.6569C0.842855 60.1566 0 58.1217 0 56V8C0 5.87827 0.842855 3.84344 2.34315 2.34315C3.84344 0.842855 5.87827 0 8 0L56 0ZM23.616 43.212L40 26.828V37.9C40 38.4304 40.2107 38.9391 40.5858 39.3142C40.9609 39.6893 41.4696 39.9 42 39.9C42.5304 39.9 43.0391 39.6893 43.4142 39.3142C43.7893 38.9391 44 38.4304 44 37.9V22C44 21.4696 43.7893 20.9609 43.4142 20.5858C43.0391 20.2107 42.5304 20 42 20H26.1C25.5696 20 25.0609 20.2107 24.6858 20.5858C24.3107 20.9609 24.1 21.4696 24.1 22C24.1 22.5304 24.3107 23.0391 24.6858 23.4142C25.0609 23.7893 25.5696 24 26.1 24H37.172L20.788 40.384C20.4237 40.7612 20.2221 41.2664 20.2267 41.7908C20.2312 42.3152 20.4415 42.8168 20.8124 43.1876C21.1832 43.5585 21.6848 43.7688 22.2092 43.7733C22.7336 43.7779 23.2388 43.5763 23.616 43.212Z" fill="#006992"/>
</svg>
