<svg width="64" height="64" viewBox="0 0 64 64" fill="none" xmlns="http://www.w3.org/2000/svg">
<path d="M8 64C5.87827 64 3.84344 63.1571 2.34315 61.6569C0.842855 60.1566 0 58.1217 0 56V8C0 5.87827 0.842855 3.84344 2.34315 2.34315C3.84344 0.842855 5.87827 0 8 0L56 0C58.1217 0 60.1566 0.842855 61.6569 2.34315C63.1571 3.84344 64 5.87827 64 8V56C64 58.1217 63.1571 60.1566 61.6569 61.6569C60.1566 63.1571 58.1217 64 56 64H8ZM40.384 20.788L24 37.172V26.1C24 25.5696 23.7893 25.0609 23.4142 24.6858C23.0391 24.3107 22.5304 24.1 22 24.1C21.4696 24.1 20.9609 24.3107 20.5858 24.6858C20.2107 25.0609 20 25.5696 20 26.1V42C20 42.5304 20.2107 43.0391 20.5858 43.4142C20.9609 43.7893 21.4696 44 22 44H37.9C38.4304 44 38.9391 43.7893 39.3142 43.4142C39.6893 43.0391 39.9 42.5304 39.9 42C39.9 41.4696 39.6893 40.9609 39.3142 40.5858C38.9391 40.2107 38.4304 40 37.9 40H26.828L43.212 23.616C43.403 23.4315 43.5554 23.2108 43.6602 22.9668C43.765 22.7228 43.8202 22.4604 43.8225 22.1948C43.8248 21.9292 43.7742 21.6659 43.6736 21.4201C43.5731 21.1743 43.4246 20.951 43.2368 20.7632C43.049 20.5754 42.8257 20.4269 42.5799 20.3264C42.3341 20.2258 42.0708 20.1752 41.8052 20.1775C41.5396 20.1798 41.2772 20.235 41.0332 20.3398C40.7892 20.4446 40.5685 20.597 40.384 20.788Z" fill="#006992"/>
</svg>
