<svg width="64" height="64" viewBox="0 0 64 64" fill="none" xmlns="http://www.w3.org/2000/svg">
<g clip-path="url(#clip0_59_144)">
<path fill-rule="evenodd" clip-rule="evenodd" d="M63.416 20.584C63.6023 20.7698 63.75 20.9905 63.8508 21.2335C63.9517 21.4764 64.0036 21.7369 64.0036 22C64.0036 22.2631 63.9517 22.5236 63.8508 22.7665C63.75 23.0095 63.6023 23.2302 63.416 23.416L51.416 35.416C51.2302 35.6023 51.0095 35.75 50.7665 35.8509C50.5236 35.9517 50.2631 36.0036 50 36.0036C49.7369 36.0036 49.4764 35.9517 49.2335 35.8509C48.9905 35.75 48.7698 35.6023 48.584 35.416L42.584 29.416C42.2085 29.0405 41.9975 28.5311 41.9975 28C41.9975 27.4689 42.2085 26.9595 42.584 26.584C42.9595 26.2085 43.4689 25.9975 44 25.9975C44.5311 25.9975 45.0405 26.2085 45.416 26.584L50 31.172L60.584 20.584C60.7698 20.3978 60.9905 20.25 61.2335 20.1492C61.4764 20.0483 61.7369 19.9964 62 19.9964C62.2631 19.9964 62.5236 20.0483 62.7665 20.1492C63.0095 20.25 63.2302 20.3978 63.416 20.584Z" fill="#006992"/>
<path d="M4 56C4 56 0 56 0 52C0 48 4 36 24 36C44 36 48 48 48 52C48 56 44 56 44 56H4ZM24 32C27.1826 32 30.2348 30.7357 32.4853 28.4853C34.7357 26.2348 36 23.1826 36 20C36 16.8174 34.7357 13.7652 32.4853 11.5147C30.2348 9.26428 27.1826 8 24 8C20.8174 8 17.7652 9.26428 15.5147 11.5147C13.2643 13.7652 12 16.8174 12 20C12 23.1826 13.2643 26.2348 15.5147 28.4853C17.7652 30.7357 20.8174 32 24 32Z" fill="#006992"/>
</g>
<defs>
<clipPath id="clip0_59_144">
<rect width="64" height="64" fill="white"/>
</clipPath>
</defs>
</svg>
