<svg width="64" height="64" viewBox="0 0 64 64" fill="none" xmlns="http://www.w3.org/2000/svg">
<path d="M44 32H52V24H44V32Z" fill="#006992"/>
<path d="M0 16C0 13.8783 0.842855 11.8434 2.34315 10.3431C3.84344 8.84285 5.87827 8 8 8H56C58.1217 8 60.1566 8.84285 61.6569 10.3431C63.1571 11.8434 64 13.8783 64 16V48C64 50.1217 63.1571 52.1566 61.6569 53.6569C60.1566 55.1571 58.1217 56 56 56H8C5.87827 56 3.84344 55.1571 2.34315 53.6569C0.842855 52.1566 0 50.1217 0 48V16ZM34 18C34 17.4696 33.7893 16.9609 33.4142 16.5858C33.0391 16.2107 32.5304 16 32 16C31.4696 16 30.9609 16.2107 30.5858 16.5858C30.2107 16.9609 30 17.4696 30 18V46C30 46.5304 30.2107 47.0391 30.5858 47.4142C30.9609 47.7893 31.4696 48 32 48C32.5304 48 33.0391 47.7893 33.4142 47.4142C33.7893 47.0391 34 46.5304 34 46V18ZM8 22C8 22.5304 8.21071 23.0391 8.58579 23.4142C8.96086 23.7893 9.46957 24 10 24H24C24.5304 24 25.0391 23.7893 25.4142 23.4142C25.7893 23.0391 26 22.5304 26 22C26 21.4696 25.7893 20.9609 25.4142 20.5858C25.0391 20.2107 24.5304 20 24 20H10C9.46957 20 8.96086 20.2107 8.58579 20.5858C8.21071 20.9609 8 21.4696 8 22ZM10 28C9.46957 28 8.96086 28.2107 8.58579 28.5858C8.21071 28.9609 8 29.4696 8 30C8 30.5304 8.21071 31.0391 8.58579 31.4142C8.96086 31.7893 9.46957 32 10 32H24C24.5304 32 25.0391 31.7893 25.4142 31.4142C25.7893 31.0391 26 30.5304 26 30C26 29.4696 25.7893 28.9609 25.4142 28.5858C25.0391 28.2107 24.5304 28 24 28H10ZM8 38C8 38.5304 8.21071 39.0391 8.58579 39.4142C8.96086 39.7893 9.46957 40 10 40H24C24.5304 40 25.0391 39.7893 25.4142 39.4142C25.7893 39.0391 26 38.5304 26 38C26 37.4696 25.7893 36.9609 25.4142 36.5858C25.0391 36.2107 24.5304 36 24 36H10C9.46957 36 8.96086 36.2107 8.58579 36.5858C8.21071 36.9609 8 37.4696 8 38ZM40 22V34C40 34.5304 40.2107 35.0391 40.5858 35.4142C40.9609 35.7893 41.4696 36 42 36H54C54.5304 36 55.0391 35.7893 55.4142 35.4142C55.7893 35.0391 56 34.5304 56 34V22C56 21.4696 55.7893 20.9609 55.4142 20.5858C55.0391 20.2107 54.5304 20 54 20H42C41.4696 20 40.9609 20.2107 40.5858 20.5858C40.2107 20.9609 40 21.4696 40 22Z" fill="#006992"/>
</svg>
