<svg width="64" height="64" viewBox="0 0 64 64" fill="none" xmlns="http://www.w3.org/2000/svg">
<path d="M4 12C4 10.9391 4.42143 9.92172 5.17157 9.17157C5.92172 8.42143 6.93913 8 8 8H56C57.0609 8 58.0783 8.42143 58.8284 9.17157C59.5786 9.92172 60 10.9391 60 12H4ZM32 44C34.1217 44 36.1566 43.1571 37.6569 41.6569C39.1571 40.1566 40 38.1217 40 36C40 33.8783 39.1571 31.8434 37.6569 30.3431C36.1566 28.8429 34.1217 28 32 28C29.8783 28 27.8434 28.8429 26.3431 30.3431C24.8429 31.8434 24 33.8783 24 36C24 38.1217 24.8429 40.1566 26.3431 41.6569C27.8434 43.1571 29.8783 44 32 44Z" fill="#006992"/>
<path d="M0 20C0 18.9391 0.421427 17.9217 1.17157 17.1716C1.92172 16.4214 2.93913 16 4 16H60C61.0609 16 62.0783 16.4214 62.8284 17.1716C63.5786 17.9217 64 18.9391 64 20V52C64 53.0609 63.5786 54.0783 62.8284 54.8284C62.0783 55.5786 61.0609 56 60 56H4C2.93913 56 1.92172 55.5786 1.17157 54.8284C0.421427 54.0783 0 53.0609 0 52V20ZM12 20C12 22.1217 11.1571 24.1566 9.65685 25.6569C8.15656 27.1571 6.12173 28 4 28V44C6.12173 44 8.15656 44.8429 9.65685 46.3431C11.1571 47.8434 12 49.8783 12 52H52C52 49.8783 52.8429 47.8434 54.3431 46.3431C55.8434 44.8429 57.8783 44 60 44V28C57.8783 28 55.8434 27.1571 54.3431 25.6569C52.8429 24.1566 52 22.1217 52 20H12Z" fill="#006992"/>
</svg>
