<svg width="64" height="64" viewBox="0 0 64 64" fill="none" xmlns="http://www.w3.org/2000/svg">
<path fill-rule="evenodd" clip-rule="evenodd" d="M20.0025 49.0036C20.0025 48.4731 20.2132 47.9644 20.5883 47.5894C20.9634 47.2143 21.4721 47.0036 22.0025 47.0036H58.0025C58.533 47.0036 59.0417 47.2143 59.4167 47.5894C59.7918 47.9644 60.0025 48.4731 60.0025 49.0036C60.0025 49.534 59.7918 50.0427 59.4167 50.4178C59.0417 50.7929 58.533 51.0036 58.0025 51.0036H22.0025C21.4721 51.0036 20.9634 50.7929 20.5883 50.4178C20.2132 50.0427 20.0025 49.534 20.0025 49.0036ZM20.0025 33.0036C20.0025 32.4731 20.2132 31.9644 20.5883 31.5894C20.9634 31.2143 21.4721 31.0036 22.0025 31.0036H58.0025C58.533 31.0036 59.0417 31.2143 59.4167 31.5894C59.7918 31.9644 60.0025 32.4731 60.0025 33.0036C60.0025 33.534 59.7918 34.0427 59.4167 34.4178C59.0417 34.7929 58.533 35.0036 58.0025 35.0036H22.0025C21.4721 35.0036 20.9634 34.7929 20.5883 34.4178C20.2132 34.0427 20.0025 33.534 20.0025 33.0036ZM20.0025 17.0036C20.0025 16.4731 20.2132 15.9644 20.5883 15.5894C20.9634 15.2143 21.4721 15.0036 22.0025 15.0036H58.0025C58.533 15.0036 59.0417 15.2143 59.4167 15.5894C59.7918 15.9644 60.0025 16.4731 60.0025 17.0036C60.0025 17.534 59.7918 18.0427 59.4167 18.4178C59.0417 18.7929 58.533 19.0036 58.0025 19.0036H22.0025C21.4721 19.0036 20.9634 18.7929 20.5883 18.4178C20.2132 18.0427 20.0025 17.534 20.0025 17.0036ZM15.4185 11.5876C15.6048 11.7734 15.7526 11.9941 15.8534 12.237C15.9542 12.48 16.0061 12.7405 16.0061 13.0036C16.0061 13.2666 15.9542 13.5271 15.8534 13.7701C15.7526 14.0131 15.6048 14.2338 15.4185 14.4196L9.41853 20.4196C9.23274 20.6058 9.01204 20.7536 8.76906 20.8544C8.52608 20.9553 8.2656 21.0071 8.00253 21.0071C7.73946 21.0071 7.47897 20.9553 7.23599 20.8544C6.99301 20.7536 6.77231 20.6058 6.58653 20.4196L4.58653 18.4196C4.40057 18.2336 4.25307 18.0129 4.15243 17.7699C4.0518 17.527 4 17.2666 4 17.0036C4 16.7406 4.0518 16.4802 4.15243 16.2372C4.25307 15.9943 4.40057 15.7735 4.58653 15.5876C4.77248 15.4016 4.99324 15.2541 5.23619 15.1535C5.47915 15.0528 5.73955 15.001 6.00253 15.001C6.2655 15.001 6.5259 15.0528 6.76886 15.1535C7.01182 15.2541 7.23257 15.4016 7.41853 15.5876L8.00253 16.1756L12.5865 11.5876C12.7723 11.4013 12.993 11.2536 13.236 11.1527C13.479 11.0519 13.7395 11 14.0025 11C14.2656 11 14.5261 11.0519 14.7691 11.1527C15.012 11.2536 15.2327 11.4013 15.4185 11.5876ZM15.4185 27.5876C15.6048 27.7734 15.7526 27.9941 15.8534 28.237C15.9542 28.48 16.0061 28.7405 16.0061 29.0036C16.0061 29.2666 15.9542 29.5271 15.8534 29.7701C15.7526 30.0131 15.6048 30.2338 15.4185 30.4196L9.41853 36.4196C9.23274 36.6058 9.01204 36.7536 8.76906 36.8544C8.52608 36.9552 8.2656 37.0071 8.00253 37.0071C7.73946 37.0071 7.47897 36.9552 7.23599 36.8544C6.99301 36.7536 6.77231 36.6058 6.58653 36.4196L4.58653 34.4196C4.21098 34.044 4 33.5347 4 33.0036C4 32.4725 4.21098 31.9631 4.58653 31.5876C4.96207 31.212 5.47142 31.001 6.00253 31.001C6.53363 31.001 7.04298 31.212 7.41853 31.5876L8.00253 32.1756L12.5865 27.5876C12.7723 27.4013 12.993 27.2536 13.236 27.1527C13.479 27.0519 13.7395 27 14.0025 27C14.2656 27 14.5261 27.0519 14.7691 27.1527C15.012 27.2536 15.2327 27.4013 15.4185 27.5876ZM15.4185 43.5876C15.6048 43.7734 15.7526 43.9941 15.8534 44.237C15.9542 44.48 16.0061 44.7405 16.0061 45.0036C16.0061 45.2666 15.9542 45.5271 15.8534 45.7701C15.7526 46.0131 15.6048 46.2338 15.4185 46.4196L9.41853 52.4196C9.23274 52.6058 9.01204 52.7536 8.76906 52.8544C8.52608 52.9552 8.2656 53.0071 8.00253 53.0071C7.73946 53.0071 7.47897 52.9552 7.23599 52.8544C6.99301 52.7536 6.77231 52.6058 6.58653 52.4196L4.58653 50.4196C4.21098 50.044 4 49.5347 4 49.0036C4 48.4725 4.21098 47.9631 4.58653 47.5876C4.96207 47.212 5.47142 47.001 6.00253 47.001C6.53363 47.001 7.04298 47.212 7.41853 47.5876L8.00253 48.1756L12.5865 43.5876C12.7723 43.4013 12.993 43.2536 13.236 43.1527C13.479 43.0519 13.7395 43 14.0025 43C14.2656 43 14.5261 43.0519 14.7691 43.1527C15.012 43.2536 15.2327 43.4013 15.4185 43.5876Z" fill="#006992"/>
</svg>
