<svg width="128" height="128" viewBox="0 0 128 128" fill="none" xmlns="http://www.w3.org/2000/svg">
<path d="M45.616 13.44C42.236 13.212 38.912 13.82 36 15.5C32.116 17.74 29.528 21.568 28.14 25.98C26.752 30.38 26.432 35.46 26.94 41.008C26.988 41.568 27.088 42.156 27.156 42.728C26.628 42.952 26.068 43.16 25.556 43.4C20.5 45.732 16.264 48.548 13.14 51.952C10.02 55.36 8 59.512 8 64C8 68.484 10.02 72.64 13.14 76.048C16.26 79.452 20.5 82.268 25.556 84.6C26.068 84.84 26.628 85.048 27.156 85.272C27.088 85.844 26.988 86.432 26.936 86.992C26.432 92.54 26.752 97.616 28.14 102.024C29.528 106.432 32.116 110.256 36 112.5C39.884 114.74 44.488 115.072 49 114.072C53.512 113.072 58.068 110.804 62.616 107.592C63.076 107.272 63.536 106.892 64 106.548C64.46 106.892 64.92 107.268 65.384 107.592C69.932 110.804 74.488 113.072 79 114.072C83.512 115.072 88.116 114.744 92 112.5C95.884 110.26 98.472 106.432 99.86 102.02C101.248 97.62 101.568 92.54 101.06 86.992C101.012 86.432 100.912 85.844 100.844 85.272C101.372 85.048 101.932 84.84 102.444 84.6C107.5 82.268 111.736 79.452 114.86 76.048C117.98 72.64 120 68.488 120 64C120 59.516 117.98 55.36 114.86 51.952C111.74 48.548 107.5 45.732 102.444 43.4C101.932 43.16 101.372 42.952 100.844 42.728C100.912 42.156 101.012 41.568 101.064 41.008C101.568 35.46 101.248 30.384 99.86 25.976C98.472 21.568 95.884 17.744 92 15.5C88.116 13.26 83.512 12.928 79 13.928C74.488 14.928 69.932 17.196 65.384 20.408C64.924 20.728 64.464 21.108 64 21.452C63.54 21.108 63.08 20.732 62.616 20.408C58.068 17.196 53.512 14.928 49 13.928C47.8861 13.6784 46.7548 13.5139 45.616 13.436V13.44ZM45.096 21.408C45.776 21.456 46.5 21.568 47.272 21.744C50.296 22.412 53.916 24.108 57.736 26.764C54.3821 29.9564 51.2733 33.3968 48.436 37.056C43.8552 37.6807 39.3278 38.6488 34.892 39.952C34.5 35.32 34.836 31.336 35.764 28.384C36.72 25.36 38.144 23.504 40 22.428C41.392 21.628 43.048 21.252 45.092 21.408H45.096ZM82.908 21.408C84.948 21.252 86.608 21.628 88 22.428C89.856 23.5 91.28 25.36 92.236 28.384C93.164 31.336 93.5 35.32 93.108 39.952C88.6722 38.6488 84.1448 37.6807 79.564 37.056C76.7267 33.3968 73.6179 29.9564 70.264 26.764C74.084 24.108 77.704 22.412 80.728 21.744C81.5 21.572 82.224 21.456 82.908 21.408ZM64 31.836C65.404 33.136 66.808 34.58 68.212 36.092C66.8087 36.0364 65.4044 36.0057 64 36C62.58 36 61.184 36.044 59.788 36.092C61.188 34.58 62.596 33.136 64 31.836ZM64 44C67.86 44 71.6 44.228 75.196 44.608C77.4018 47.6283 79.446 50.7633 81.32 54C83.248 57.34 84.92 60.692 86.392 64C84.8792 67.4206 83.1862 70.7586 81.32 74C79.446 77.2367 77.4018 80.3717 75.196 83.392C71.596 83.772 67.86 84 64 84C60.14 84 56.4 83.772 52.804 83.392C50.5982 80.3717 48.554 77.2367 46.68 74C44.752 70.66 43.08 67.308 41.608 64C43.076 60.692 44.752 57.34 46.68 54C48.608 50.66 50.676 47.532 52.804 44.608C56.5226 44.2077 60.2599 44.0047 64 44ZM41.936 46.4C41.196 47.58 40.46 48.768 39.752 50C39.0555 51.2199 38.3807 52.4521 37.728 53.696C37.128 51.7915 36.601 49.8647 36.148 47.92C37.976 47.356 39.928 46.856 41.936 46.4ZM86.064 46.4C88.072 46.856 90.024 47.356 91.852 47.92C91.428 49.788 90.88 51.728 90.272 53.696C89.6193 52.4521 88.9445 51.2199 88.248 50C87.5414 48.7872 86.8132 47.587 86.064 46.4ZM28.616 50.812C29.64 55.072 31.052 59.492 32.884 64C31.1325 68.2827 29.7058 72.6912 28.616 77.188C24.412 75.208 21.128 72.92 19.04 70.64C16.9 68.304 16 66.144 16 64C16 61.856 16.9 59.696 19.04 57.36C21.128 55.08 24.412 52.792 28.616 50.812ZM99.384 50.812C103.588 52.792 106.872 55.08 108.96 57.36C111.1 59.696 112 61.856 112 64C112 66.144 111.1 68.304 108.96 70.64C106.872 72.92 103.588 75.208 99.384 77.188C98.2942 72.6912 96.8675 68.2827 95.116 64C96.8663 59.7169 98.2929 55.3085 99.384 50.812ZM64 52C57.42 52 52 57.42 52 64C52 70.58 57.42 76 64 76C70.58 76 76 70.58 76 64C76 57.42 70.58 52 64 52ZM64 60C66.256 60 68 61.744 68 64C68 66.256 66.256 68 64 68C61.744 68 60 66.256 60 64C60 61.744 61.744 60 64 60ZM37.728 74.304C38.38 75.536 39.04 76.768 39.748 78C40.46 79.232 41.196 80.42 41.936 81.6C39.928 81.144 37.976 80.644 36.148 80.08C36.572 78.212 37.12 76.272 37.728 74.304ZM90.272 74.304C90.88 76.272 91.432 78.212 91.852 80.08C90.024 80.644 88.072 81.144 86.064 81.6C86.804 80.42 87.54 79.232 88.252 78C88.96 76.768 89.62 75.536 90.272 74.304ZM34.892 88.048C39.092 89.288 43.624 90.28 48.436 90.944C51.2747 94.6021 54.3834 98.0424 57.736 101.236C53.916 103.892 50.296 105.588 47.272 106.256C44.18 106.944 41.856 106.64 40 105.572C38.144 104.5 36.72 102.64 35.764 99.616C34.836 96.664 34.5 92.68 34.892 88.048ZM93.108 88.048C93.5 92.68 93.164 96.664 92.236 99.616C91.28 102.64 89.856 104.496 88 105.572C86.144 106.64 83.82 106.944 80.728 106.256C77.704 105.588 74.084 103.892 70.264 101.236C73.6179 98.0436 76.7267 94.6032 79.564 90.944C84.1448 90.3193 88.6722 89.3512 93.108 88.048ZM59.788 91.908C61.184 91.956 62.58 92 64 92C65.42 92 66.816 91.956 68.212 91.908C66.812 93.42 65.404 94.864 64 96.164C62.5423 94.7995 61.1372 93.3798 59.788 91.908Z" fill="white"/>
</svg>
